<?xml version="1.0" encoding="UTF-8"?>
<!-- Generated by jsxcad -->
<!DOCTYPE svg PUBLIC "-//W3C//DTD SVG 1.1 Tiny//EN" "http://www.w3.org/Graphics/SVG/1.1/DTD/svg11-tiny.dtd">
<svg baseProfile="tiny" height="3.2805039370078752mm" width="12.561422180158887mm" viewBox="-6.280711090079444 -1.2071811023622052 12.561422180158887 3.2805039370078752" version="1.1" stroke="black" stroke-width=".1" fill="none" xmlns="http://www.w3.org/2000/svg">
<path fill="#0000ff" stroke="#0000ff" d="M2.9960629921259834 -2.0733228346456687 L2.9960629921259834 -2.0733228346456687 L2.427950327243392 -1.7453228346456688 L2.427950327243392 -1.7453228346456688 z"/>
<path fill="#0000ff" stroke="#0000ff" d="M3.564175657008575 -1.7453228346456695 L3.564175657008575 -1.7453228346456695 L2.996062992125984 -2.073322834645669 L2.996062992125984 -2.073322834645669 z"/>
<path fill="#0000ff" stroke="#0000ff" d="M3.5641756570085756 -1.0893228346456694 L3.5641756570085756 -1.0893228346456694 L3.5641756570085756 -1.7453228346456693 L3.5641756570085756 -1.7453228346456693 z"/>
<path fill="#0000ff" stroke="#0000ff" d="M2.996062992125984 -0.7613228346456691 L2.996062992125984 -0.7613228346456691 L3.5641756570085756 -1.0893228346456694 L3.5641756570085756 -1.0893228346456694 z"/>
<path fill="#0000ff" stroke="#0000ff" d="M2.427950327243392 -1.7453228346456688 L2.427950327243392 -1.7453228346456688 L2.4279503272433924 -1.0893228346456691 L2.4279503272433924 -1.0893228346456691 z"/>
<path fill="#0000ff" stroke="#0000ff" d="M2.4279503272433924 -1.0893228346456694 L2.4279503272433924 -1.0893228346456694 L2.996062992125984 -0.7613228346456697 L2.996062992125984 -0.7613228346456697 z"/>
<path fill="#0000ff" stroke="#0000ff" d="M2.9960629921259843 -2.073322834645669 L2.427950327243392 -1.7453228346456688 L2.4279503272433924 -1.089322834645669 L2.9960629921259843 -0.7613228346456694 L3.5641756570085756 -1.0893228346456694 L3.5641756570085756 -1.745322834645669 z"/>
<path fill="#0000ff" stroke="#0000ff" d="M2.9960629921259843 -2.073322834645669 L3.5641756570085756 -1.745322834645669 L3.5641756570085756 -1.0893228346456694 L2.9960629921259843 -0.7613228346456694 L2.4279503272433924 -1.089322834645669 L2.427950327243392 -1.7453228346456688 z"/>
<path fill="#0000ff" stroke="#0000ff" d="M3.498357726320958 -1.7073228346456695 L3.498357726320958 -1.7073228346456695 L2.996062992125984 -1.9973228346456695 L2.996062992125984 -1.9973228346456695 z"/>
<path fill="#0000ff" stroke="#0000ff" d="M3.4983577263209584 -1.1273228346456694 L3.4983577263209584 -1.1273228346456694 L3.4983577263209584 -1.7073228346456693 L3.4983577263209584 -1.7073228346456693 z"/>
<path fill="#0000ff" stroke="#0000ff" d="M2.9960629921259843 -0.8373228346456694 L2.9960629921259843 -0.8373228346456694 L3.498357726320958 -1.1273228346456692 L3.498357726320958 -1.1273228346456692 z"/>
<path fill="#0000ff" stroke="#0000ff" d="M2.493768257931009 -1.1273228346456694 L2.493768257931009 -1.1273228346456694 L2.996062992125984 -0.8373228346456696 L2.996062992125984 -0.8373228346456696 z"/>
<path fill="#0000ff" stroke="#0000ff" d="M2.4937682579310096 -1.7073228346456688 L2.4937682579310096 -1.7073228346456688 L2.4937682579310096 -1.1273228346456692 L2.4937682579310096 -1.1273228346456692 z"/>
<path fill="#0000ff" stroke="#0000ff" d="M2.996062992125984 -1.9973228346456693 L2.996062992125984 -1.9973228346456693 L2.493768257931009 -1.7073228346456688 L2.493768257931009 -1.7073228346456688 z"/>
<path fill="#0000ff" stroke="#0000ff" d="M3.4983577263209584 -1.7073228346456693 L2.9960629921259843 -1.9973228346456693 L2.4937682579310096 -1.707322834645669 L2.4937682579310096 -1.1273228346456692 L2.9960629921259843 -0.8373228346456693 L3.4983577263209584 -1.1273228346456694 z"/>
<path fill="#0000ff" stroke="#0000ff" d="M3.4983577263209584 -1.7073228346456693 L3.4983577263209584 -1.1273228346456694 L2.9960629921259843 -0.8373228346456693 L2.4937682579310096 -1.1273228346456692 L2.4937682579310096 -1.707322834645669 L2.9960629921259843 -1.9973228346456693 z"/>
<path fill="#0000ff" stroke="#0000ff" d="M3.371113363843654 -1.6338582677165354 L3.371113363843654 -1.6338582677165354 L2.996062992125984 -1.8503937007874018 L2.996062992125984 -1.8503937007874018 z"/>
<path fill="#0000ff" stroke="#0000ff" d="M2.996062992125984 -0.9842519685039369 L2.996062992125984 -0.9842519685039369 L3.371113363843654 -1.2007874015748032 L3.371113363843654 -1.2007874015748032 z"/>
<path fill="#0000ff" stroke="#0000ff" d="M2.6210126204083135 -1.2007874015748032 L2.6210126204083135 -1.2007874015748032 L2.9960629921259843 -0.9842519685039371 L2.9960629921259843 -0.9842519685039371 z"/>
<path fill="#0000ff" stroke="#0000ff" d="M3.3711133638436546 -1.2007874015748032 L3.3711133638436546 -1.2007874015748032 L3.371113363843654 -1.6338582677165352 L3.371113363843654 -1.6338582677165352 z"/>
<path fill="#0000ff" stroke="#0000ff" d="M2.6210126204083135 -1.633858267716535 L2.6210126204083135 -1.633858267716535 L2.621012620408314 -1.2007874015748028 L2.621012620408314 -1.2007874015748028 z"/>
<path fill="#0000ff" stroke="#0000ff" d="M2.996062992125984 -1.8503937007874016 L2.996062992125984 -1.8503937007874016 L2.621012620408313 -1.633858267716535 L2.621012620408313 -1.633858267716535 z"/>
<path fill="#0000ff" stroke="#0000ff" d="M3.371113363843654 -1.6338582677165352 L2.9960629921259843 -1.8503937007874014 L2.6210126204083135 -1.633858267716535 L2.621012620408314 -1.200787401574803 L2.9960629921259843 -0.984251968503937 L3.3711133638436546 -1.2007874015748032 z"/>
<path fill="#0000ff" stroke="#0000ff" d="M2.9960629921259843 -1.8503937007874014 L3.371113363843654 -1.6338582677165352 L3.3711133638436546 -1.2007874015748032 L2.9960629921259843 -0.984251968503937 L2.621012620408314 -1.200787401574803 L2.6210126204083135 -1.633858267716535 z"/>
<path fill="#0000ff" stroke="#0000ff" d="M4.413385826771653 -2.0733228346456687 L4.413385826771653 -2.0733228346456687 L3.8452731618890614 -1.7453228346456688 L3.8452731618890614 -1.7453228346456688 z"/>
<path fill="#0000ff" stroke="#0000ff" d="M4.981498491654245 -1.7453228346456693 L4.981498491654245 -1.7453228346456693 L4.413385826771653 -2.0733228346456696 L4.413385826771653 -2.0733228346456696 z"/>
<path fill="#0000ff" stroke="#0000ff" d="M4.981498491654245 -1.0893228346456694 L4.981498491654245 -1.0893228346456694 L4.981498491654245 -1.7453228346456693 L4.981498491654245 -1.7453228346456693 z"/>
<path fill="#0000ff" stroke="#0000ff" d="M4.413385826771653 -0.7613228346456693 L4.413385826771653 -0.7613228346456693 L4.981498491654245 -1.0893228346456691 L4.981498491654245 -1.0893228346456691 z"/>
<path fill="#0000ff" stroke="#0000ff" d="M3.8452731618890614 -1.7453228346456688 L3.8452731618890614 -1.7453228346456688 L3.845273161889062 -1.0893228346456691 L3.845273161889062 -1.0893228346456691 z"/>
<path fill="#0000ff" stroke="#0000ff" d="M3.8452731618890614 -1.0893228346456694 L3.8452731618890614 -1.0893228346456694 L4.413385826771654 -0.7613228346456695 L4.413385826771654 -0.7613228346456695 z"/>
<path fill="#0000ff" stroke="#0000ff" d="M4.413385826771654 -2.073322834645669 L3.8452731618890614 -1.7453228346456688 L3.845273161889062 -1.089322834645669 L4.413385826771654 -0.7613228346456694 L4.981498491654245 -1.0893228346456694 L4.981498491654245 -1.745322834645669 z"/>
<path fill="#0000ff" stroke="#0000ff" d="M4.413385826771654 -2.073322834645669 L4.981498491654245 -1.745322834645669 L4.981498491654245 -1.0893228346456694 L4.413385826771654 -0.7613228346456694 L3.845273161889062 -1.089322834645669 L3.8452731618890614 -1.7453228346456688 z"/>
<path fill="#0000ff" stroke="#0000ff" d="M4.915680560966627 -1.7073228346456697 L4.915680560966627 -1.7073228346456697 L4.413385826771653 -1.9973228346456693 L4.413385826771653 -1.9973228346456693 z"/>
<path fill="#0000ff" stroke="#0000ff" d="M4.915680560966628 -1.1273228346456694 L4.915680560966628 -1.1273228346456694 L4.915680560966628 -1.7073228346456693 L4.915680560966628 -1.7073228346456693 z"/>
<path fill="#0000ff" stroke="#0000ff" d="M4.413385826771653 -0.837322834645669 L4.413385826771653 -0.837322834645669 L4.915680560966627 -1.1273228346456694 L4.915680560966627 -1.1273228346456694 z"/>
<path fill="#0000ff" stroke="#0000ff" d="M3.9110910925766786 -1.1273228346456696 L3.9110910925766786 -1.1273228346456696 L4.413385826771653 -0.8373228346456696 L4.413385826771653 -0.8373228346456696 z"/>
<path fill="#0000ff" stroke="#0000ff" d="M3.911091092576679 -1.7073228346456688 L3.911091092576679 -1.7073228346456688 L3.911091092576679 -1.1273228346456692 L3.911091092576679 -1.1273228346456692 z"/>
<path fill="#0000ff" stroke="#0000ff" d="M4.413385826771653 -1.9973228346456688 L4.413385826771653 -1.9973228346456688 L3.9110910925766786 -1.7073228346456688 L3.9110910925766786 -1.7073228346456688 z"/>
<path fill="#0000ff" stroke="#0000ff" d="M4.915680560966628 -1.7073228346456693 L4.413385826771654 -1.9973228346456693 L3.911091092576679 -1.707322834645669 L3.911091092576679 -1.1273228346456692 L4.413385826771654 -0.8373228346456693 L4.915680560966628 -1.1273228346456694 z"/>
<path fill="#0000ff" stroke="#0000ff" d="M4.915680560966628 -1.7073228346456693 L4.915680560966628 -1.1273228346456694 L4.413385826771654 -0.8373228346456693 L3.911091092576679 -1.1273228346456692 L3.911091092576679 -1.707322834645669 L4.413385826771654 -1.9973228346456693 z"/>
<path fill="#0000ff" stroke="#0000ff" d="M4.788436198489323 -1.6338582677165359 L4.788436198489323 -1.6338582677165359 L4.413385826771653 -1.8503937007874016 L4.413385826771653 -1.8503937007874016 z"/>
<path fill="#0000ff" stroke="#0000ff" d="M4.413385826771653 -0.9842519685039367 L4.413385826771653 -0.9842519685039367 L4.788436198489323 -1.200787401574803 L4.788436198489323 -1.200787401574803 z"/>
<path fill="#0000ff" stroke="#0000ff" d="M4.038335455053983 -1.2007874015748032 L4.038335455053983 -1.2007874015748032 L4.413385826771653 -0.9842519685039375 L4.413385826771653 -0.9842519685039375 z"/>
<path fill="#0000ff" stroke="#0000ff" d="M4.788436198489324 -1.2007874015748032 L4.788436198489324 -1.2007874015748032 L4.788436198489324 -1.6338582677165352 L4.788436198489324 -1.6338582677165352 z"/>
<path fill="#0000ff" stroke="#0000ff" d="M4.038335455053983 -1.633858267716535 L4.038335455053983 -1.633858267716535 L4.038335455053983 -1.2007874015748028 L4.038335455053983 -1.2007874015748028 z"/>
<path fill="#0000ff" stroke="#0000ff" d="M4.413385826771653 -1.8503937007874016 L4.413385826771653 -1.8503937007874016 L4.038335455053982 -1.633858267716535 L4.038335455053982 -1.633858267716535 z"/>
<path fill="#0000ff" stroke="#0000ff" d="M4.788436198489324 -1.6338582677165352 L4.413385826771654 -1.8503937007874014 L4.038335455053983 -1.633858267716535 L4.038335455053983 -1.200787401574803 L4.413385826771654 -0.984251968503937 L4.788436198489324 -1.2007874015748032 z"/>
<path fill="#0000ff" stroke="#0000ff" d="M4.413385826771654 -1.8503937007874014 L4.788436198489324 -1.6338582677165352 L4.788436198489324 -1.2007874015748032 L4.413385826771654 -0.984251968503937 L4.038335455053983 -1.200787401574803 L4.038335455053983 -1.633858267716535 z"/>
<path fill="#0000ff" stroke="#0000ff" d="M5.712598425196849 -1.5221417322834638 L5.712598425196849 -1.5221417322834638 L5.144485760314258 -1.194141732283464 L5.144485760314258 -1.194141732283464 z"/>
<path fill="#0000ff" stroke="#0000ff" d="M6.280711090079441 -1.1941417322834653 L6.280711090079441 -1.1941417322834653 L5.71259842519685 -1.5221417322834647 L5.71259842519685 -1.5221417322834647 z"/>
<path fill="#0000ff" stroke="#0000ff" d="M6.280711090079442 -0.5381417322834647 L6.280711090079442 -0.5381417322834647 L6.280711090079442 -1.1941417322834644 L6.280711090079442 -1.1941417322834644 z"/>
<path fill="#0000ff" stroke="#0000ff" d="M5.712598425196849 -0.21014173228346428 L5.712598425196849 -0.21014173228346428 L6.280711090079442 -0.5381417322834645 L6.280711090079442 -0.5381417322834645 z"/>
<path fill="#0000ff" stroke="#0000ff" d="M5.144485760314258 -1.194141732283464 L5.144485760314258 -1.194141732283464 L5.144485760314259 -0.5381417322834644 L5.144485760314259 -0.5381417322834644 z"/>
<path fill="#0000ff" stroke="#0000ff" d="M5.144485760314258 -0.5381417322834647 L5.144485760314258 -0.5381417322834647 L5.71259842519685 -0.21014173228346514 L5.71259842519685 -0.21014173228346514 z"/>
<path fill="#0000ff" stroke="#0000ff" d="M5.71259842519685 -1.5221417322834645 L5.144485760314258 -1.194141732283464 L5.144485760314259 -0.5381417322834644 L5.71259842519685 -0.21014173228346472 L6.280711090079442 -0.5381417322834647 L6.280711090079442 -1.1941417322834644 z"/>
<path fill="#0000ff" stroke="#0000ff" d="M5.71259842519685 -1.5221417322834645 L6.280711090079442 -1.1941417322834644 L6.280711090079442 -0.5381417322834647 L5.71259842519685 -0.21014173228346472 L5.144485760314259 -0.5381417322834644 L5.144485760314258 -1.194141732283464 z"/>
<path fill="#0000ff" stroke="#0000ff" d="M6.214893159391824 -1.1561417322834646 L6.214893159391824 -1.1561417322834646 L5.71259842519685 -1.4461417322834649 L5.71259842519685 -1.4461417322834649 z"/>
<path fill="#0000ff" stroke="#0000ff" d="M6.214893159391825 -0.5761417322834648 L6.214893159391825 -0.5761417322834648 L6.214893159391825 -1.1561417322834646 L6.214893159391825 -1.1561417322834646 z"/>
<path fill="#0000ff" stroke="#0000ff" d="M5.71259842519685 -0.2861417322834644 L5.71259842519685 -0.2861417322834644 L6.214893159391824 -0.5761417322834647 L6.214893159391824 -0.5761417322834647 z"/>
<path fill="#0000ff" stroke="#0000ff" d="M5.210303691001875 -0.5761417322834649 L5.210303691001875 -0.5761417322834649 L5.71259842519685 -0.2861417322834649 L5.71259842519685 -0.2861417322834649 z"/>
<path fill="#0000ff" stroke="#0000ff" d="M5.210303691001876 -1.1561417322834642 L5.210303691001876 -1.1561417322834642 L5.210303691001876 -0.5761417322834644 L5.210303691001876 -0.5761417322834644 z"/>
<path fill="#0000ff" stroke="#0000ff" d="M5.71259842519685 -1.4461417322834644 L5.71259842519685 -1.4461417322834644 L5.210303691001875 -1.156141732283464 L5.210303691001875 -1.156141732283464 z"/>
<path fill="#0000ff" stroke="#0000ff" d="M6.214893159391825 -1.1561417322834646 L5.71259842519685 -1.4461417322834644 L5.210303691001876 -1.1561417322834642 L5.210303691001876 -0.5761417322834644 L5.71259842519685 -0.2861417322834647 L6.214893159391825 -0.5761417322834648 z"/>
<path fill="#0000ff" stroke="#0000ff" d="M6.214893159391825 -1.1561417322834646 L6.214893159391825 -0.5761417322834648 L5.71259842519685 -0.2861417322834647 L5.210303691001876 -0.5761417322834644 L5.210303691001876 -1.1561417322834642 L5.71259842519685 -1.4461417322834644 z"/>
<path fill="#0000ff" stroke="#0000ff" d="M6.08764879691452 -1.0826771653543308 L6.08764879691452 -1.0826771653543308 L5.71259842519685 -1.2992125984251972 L5.71259842519685 -1.2992125984251972 z"/>
<path fill="#0000ff" stroke="#0000ff" d="M5.71259842519685 -0.4330708661417322 L5.71259842519685 -0.4330708661417322 L6.087648796914521 -0.6496062992125985 L6.087648796914521 -0.6496062992125985 z"/>
<path fill="#0000ff" stroke="#0000ff" d="M5.33754805347918 -0.6496062992125985 L5.33754805347918 -0.6496062992125985 L5.71259842519685 -0.4330708661417328 L5.71259842519685 -0.4330708661417328 z"/>
<path fill="#0000ff" stroke="#0000ff" d="M6.087648796914521 -0.6496062992125985 L6.087648796914521 -0.6496062992125985 L6.087648796914521 -1.0826771653543308 L6.087648796914521 -1.0826771653543308 z"/>
<path fill="#0000ff" stroke="#0000ff" d="M5.33754805347918 -1.0826771653543303 L5.33754805347918 -1.0826771653543303 L5.33754805347918 -0.6496062992125983 L5.33754805347918 -0.6496062992125983 z"/>
<path fill="#0000ff" stroke="#0000ff" d="M5.71259842519685 -1.2992125984251968 L5.71259842519685 -1.2992125984251968 L5.337548053479179 -1.0826771653543301 L5.337548053479179 -1.0826771653543301 z"/>
<path fill="#0000ff" stroke="#0000ff" d="M6.087648796914521 -1.0826771653543306 L5.71259842519685 -1.2992125984251968 L5.33754805347918 -1.0826771653543303 L5.33754805347918 -0.6496062992125983 L5.71259842519685 -0.43307086614173235 L6.087648796914521 -0.6496062992125985 z"/>
<path fill="#0000ff" stroke="#0000ff" d="M5.71259842519685 -1.2992125984251968 L6.087648796914521 -1.0826771653543306 L6.087648796914521 -0.6496062992125985 L5.71259842519685 -0.43307086614173235 L5.33754805347918 -0.6496062992125983 L5.33754805347918 -1.0826771653543303 z"/>
<path fill="#0000ff" stroke="#0000ff" d="M2.9960629921259834 -0.6559999999999996 L2.9960629921259834 -0.6559999999999996 L2.427950327243392 -0.3279999999999994 L2.427950327243392 -0.3279999999999994 z"/>
<path fill="#0000ff" stroke="#0000ff" d="M3.564175657008575 -0.3280000000000002 L3.564175657008575 -0.3280000000000002 L2.996062992125984 -0.656 L2.996062992125984 -0.656 z"/>
<path fill="#0000ff" stroke="#0000ff" d="M3.5641756570085756 0.3279999999999998 L3.5641756570085756 0.3279999999999998 L3.5641756570085756 -0.3279999999999999 L3.5641756570085756 -0.3279999999999999 z"/>
<path fill="#0000ff" stroke="#0000ff" d="M2.996062992125984 0.6560000000000002 L2.996062992125984 0.6560000000000002 L3.5641756570085756 0.32799999999999996 L3.5641756570085756 0.32799999999999996 z"/>
<path fill="#0000ff" stroke="#0000ff" d="M2.427950327243392 -0.3279999999999995 L2.427950327243392 -0.3279999999999995 L2.4279503272433924 0.3280000000000001 L2.4279503272433924 0.3280000000000001 z"/>
<path fill="#0000ff" stroke="#0000ff" d="M2.4279503272433924 0.328 L2.4279503272433924 0.328 L2.996062992125984 0.6559999999999996 L2.996062992125984 0.6559999999999996 z"/>
<path fill="#0000ff" stroke="#0000ff" d="M2.9960629921259843 -0.6559999999999998 L2.427950327243392 -0.3279999999999995 L2.4279503272433924 0.3280000000000001 L2.9960629921259843 0.6559999999999998 L3.5641756570085756 0.3279999999999998 L3.5641756570085756 -0.3279999999999999 z"/>
<path fill="#0000ff" stroke="#0000ff" d="M2.9960629921259843 -0.6559999999999998 L3.5641756570085756 -0.3279999999999999 L3.5641756570085756 0.3279999999999998 L2.9960629921259843 0.6559999999999998 L2.4279503272433924 0.3280000000000001 L2.427950327243392 -0.3279999999999995 z"/>
<path fill="#0000ff" stroke="#0000ff" d="M3.498357726320958 -0.2900000000000002 L3.498357726320958 -0.2900000000000002 L2.996062992125984 -0.5800000000000002 L2.996062992125984 -0.5800000000000002 z"/>
<path fill="#0000ff" stroke="#0000ff" d="M3.4983577263209584 0.28999999999999987 L3.4983577263209584 0.28999999999999987 L3.4983577263209584 -0.29 L3.4983577263209584 -0.29 z"/>
<path fill="#0000ff" stroke="#0000ff" d="M2.9960629921259843 0.58 L2.9960629921259843 0.58 L3.498357726320958 0.29000000000000015 L3.498357726320958 0.29000000000000015 z"/>
<path fill="#0000ff" stroke="#0000ff" d="M2.493768257931009 0.2899999999999999 L2.493768257931009 0.2899999999999999 L2.996062992125984 0.5799999999999997 L2.996062992125984 0.5799999999999997 z"/>
<path fill="#0000ff" stroke="#0000ff" d="M2.4937682579310096 -0.2899999999999996 L2.4937682579310096 -0.2899999999999996 L2.4937682579310096 0.2900000000000001 L2.4937682579310096 0.2900000000000001 z"/>
<path fill="#0000ff" stroke="#0000ff" d="M2.996062992125984 -0.5799999999999998 L2.996062992125984 -0.5799999999999998 L2.493768257931009 -0.28999999999999954 L2.493768257931009 -0.28999999999999954 z"/>
<path fill="#0000ff" stroke="#0000ff" d="M3.4983577263209584 -0.2899999999999999 L2.9960629921259843 -0.5799999999999998 L2.4937682579310096 -0.2899999999999996 L2.4937682579310096 0.2900000000000001 L2.9960629921259843 0.5799999999999998 L3.4983577263209584 0.2899999999999998 z"/>
<path fill="#0000ff" stroke="#0000ff" d="M3.4983577263209584 -0.2899999999999999 L3.4983577263209584 0.2899999999999998 L2.9960629921259843 0.5799999999999998 L2.4937682579310096 0.2900000000000001 L2.4937682579310096 -0.2899999999999996 L2.9960629921259843 -0.5799999999999998 z"/>
<path fill="#0000ff" stroke="#0000ff" d="M3.371113363843654 -0.21653543307086615 L3.371113363843654 -0.21653543307086615 L2.996062992125984 -0.4330708661417324 L2.996062992125984 -0.4330708661417324 z"/>
<path fill="#0000ff" stroke="#0000ff" d="M2.996062992125984 0.4330708661417324 L2.996062992125984 0.4330708661417324 L3.371113363843654 0.21653543307086606 L3.371113363843654 0.21653543307086606 z"/>
<path fill="#0000ff" stroke="#0000ff" d="M2.6210126204083135 0.21653543307086612 L2.6210126204083135 0.21653543307086612 L2.9960629921259843 0.43307086614173224 L2.9960629921259843 0.43307086614173224 z"/>
<path fill="#0000ff" stroke="#0000ff" d="M3.371113363843654 0.21653543307086603 L3.371113363843654 0.21653543307086603 L3.371113363843654 -0.21653543307086612 L3.371113363843654 -0.21653543307086612 z"/>
<path fill="#0000ff" stroke="#0000ff" d="M2.6210126204083135 -0.21653543307086584 L2.6210126204083135 -0.21653543307086584 L2.621012620408314 0.21653543307086626 L2.621012620408314 0.21653543307086626 z"/>
<path fill="#0000ff" stroke="#0000ff" d="M2.996062992125984 -0.43307086614173224 L2.996062992125984 -0.43307086614173224 L2.621012620408313 -0.21653543307086567 L2.621012620408313 -0.21653543307086567 z"/>
<path fill="#0000ff" stroke="#0000ff" d="M3.371113363843654 -0.21653543307086612 L2.9960629921259843 -0.43307086614173224 L2.6210126204083135 -0.2165354330708658 L2.621012620408314 0.21653543307086626 L2.9960629921259843 0.43307086614173224 L3.3711133638436546 0.21653543307086603 z"/>
<path fill="#0000ff" stroke="#0000ff" d="M2.9960629921259843 -0.43307086614173224 L3.371113363843654 -0.21653543307086612 L3.3711133638436546 0.21653543307086603 L2.9960629921259843 0.43307086614173224 L2.621012620408314 0.21653543307086626 L2.6210126204083135 -0.2165354330708658 z"/>
<path fill="#0000ff" stroke="#0000ff" d="M4.413385826771653 -0.6559999999999996 L4.413385826771653 -0.6559999999999996 L3.8452731618890614 -0.32799999999999946 L3.8452731618890614 -0.32799999999999946 z"/>
<path fill="#0000ff" stroke="#0000ff" d="M4.981498491654245 -0.328 L4.981498491654245 -0.328 L4.413385826771653 -0.6560000000000001 L4.413385826771653 -0.6560000000000001 z"/>
<path fill="#0000ff" stroke="#0000ff" d="M4.981498491654245 0.3279999999999998 L4.981498491654245 0.3279999999999998 L4.981498491654245 -0.3279999999999999 L4.981498491654245 -0.3279999999999999 z"/>
<path fill="#0000ff" stroke="#0000ff" d="M4.413385826771653 0.656 L4.413385826771653 0.656 L4.981498491654245 0.3280000000000002 L4.981498491654245 0.3280000000000002 z"/>
<path fill="#0000ff" stroke="#0000ff" d="M3.8452731618890614 -0.3279999999999995 L3.8452731618890614 -0.3279999999999995 L3.845273161889062 0.3280000000000001 L3.845273161889062 0.3280000000000001 z"/>
<path fill="#0000ff" stroke="#0000ff" d="M3.8452731618890614 0.32799999999999985 L3.8452731618890614 0.32799999999999985 L4.413385826771654 0.6559999999999998 L4.413385826771654 0.6559999999999998 z"/>
<path fill="#0000ff" stroke="#0000ff" d="M4.413385826771654 -0.6559999999999998 L3.8452731618890614 -0.3279999999999995 L3.845273161889062 0.3280000000000001 L4.413385826771654 0.6559999999999998 L4.981498491654245 0.3279999999999998 L4.981498491654245 -0.3279999999999999 z"/>
<path fill="#0000ff" stroke="#0000ff" d="M4.413385826771654 -0.6559999999999998 L4.981498491654245 -0.3279999999999999 L4.981498491654245 0.3279999999999998 L4.413385826771654 0.6559999999999998 L3.845273161889062 0.3280000000000001 L3.8452731618890614 -0.3279999999999995 z"/>
<path fill="#0000ff" stroke="#0000ff" d="M4.915680560966627 -0.29000000000000026 L4.915680560966627 -0.29000000000000026 L4.413385826771653 -0.58 L4.413385826771653 -0.58 z"/>
<path fill="#0000ff" stroke="#0000ff" d="M4.915680560966628 0.28999999999999987 L4.915680560966628 0.28999999999999987 L4.915680560966628 -0.29 L4.915680560966628 -0.29 z"/>
<path fill="#0000ff" stroke="#0000ff" d="M4.413385826771653 0.5800000000000003 L4.413385826771653 0.5800000000000003 L4.915680560966627 0.29 L4.915680560966627 0.29 z"/>
<path fill="#0000ff" stroke="#0000ff" d="M3.9110910925766786 0.28999999999999976 L3.9110910925766786 0.28999999999999976 L4.413385826771653 0.5799999999999997 L4.413385826771653 0.5799999999999997 z"/>
<path fill="#0000ff" stroke="#0000ff" d="M3.911091092576679 -0.2899999999999996 L3.911091092576679 -0.2899999999999996 L3.911091092576679 0.2900000000000001 L3.911091092576679 0.2900000000000001 z"/>
<path fill="#0000ff" stroke="#0000ff" d="M4.413385826771653 -0.5799999999999995 L4.413385826771653 -0.5799999999999995 L3.9110910925766786 -0.2899999999999995 L3.9110910925766786 -0.2899999999999995 z"/>
<path fill="#0000ff" stroke="#0000ff" d="M4.915680560966628 -0.2899999999999999 L4.413385826771654 -0.5799999999999998 L3.911091092576679 -0.2899999999999996 L3.911091092576679 0.2900000000000001 L4.413385826771654 0.5799999999999998 L4.915680560966628 0.2899999999999998 z"/>
<path fill="#0000ff" stroke="#0000ff" d="M4.915680560966628 -0.2899999999999999 L4.915680560966628 0.2899999999999998 L4.413385826771654 0.5799999999999998 L3.911091092576679 0.2900000000000001 L3.911091092576679 -0.2899999999999996 L4.413385826771654 -0.5799999999999998 z"/>
<path fill="#0000ff" stroke="#0000ff" d="M4.788436198489323 -0.21653543307086653 L4.788436198489323 -0.21653543307086653 L4.413385826771653 -0.43307086614173235 L4.413385826771653 -0.43307086614173235 z"/>
<path fill="#0000ff" stroke="#0000ff" d="M4.413385826771653 0.4330708661417327 L4.413385826771653 0.4330708661417327 L4.788436198489323 0.21653543307086634 L4.788436198489323 0.21653543307086634 z"/>
<path fill="#0000ff" stroke="#0000ff" d="M4.038335455053983 0.21653543307086615 L4.038335455053983 0.21653543307086615 L4.413385826771653 0.43307086614173185 L4.413385826771653 0.43307086614173185 z"/>
<path fill="#0000ff" stroke="#0000ff" d="M4.788436198489324 0.21653543307086603 L4.788436198489324 0.21653543307086603 L4.788436198489324 -0.21653543307086612 L4.788436198489324 -0.21653543307086612 z"/>
<path fill="#0000ff" stroke="#0000ff" d="M4.038335455053983 -0.21653543307086584 L4.038335455053983 -0.21653543307086584 L4.038335455053983 0.21653543307086626 L4.038335455053983 0.21653543307086626 z"/>
<path fill="#0000ff" stroke="#0000ff" d="M4.413385826771653 -0.4330708661417322 L4.413385826771653 -0.4330708661417322 L4.038335455053982 -0.21653543307086562 L4.038335455053982 -0.21653543307086562 z"/>
<path fill="#0000ff" stroke="#0000ff" d="M4.788436198489324 -0.21653543307086612 L4.413385826771654 -0.43307086614173224 L4.038335455053983 -0.2165354330708658 L4.038335455053983 0.21653543307086626 L4.413385826771654 0.43307086614173224 L4.788436198489324 0.21653543307086603 z"/>
<path fill="#0000ff" stroke="#0000ff" d="M4.413385826771654 -0.43307086614173224 L4.788436198489324 -0.21653543307086612 L4.788436198489324 0.21653543307086603 L4.413385826771654 0.43307086614173224 L4.038335455053983 0.21653543307086626 L4.038335455053983 -0.2165354330708658 z"/>
<path fill="#0000ff" stroke="#0000ff" d="M5.712598425196849 -0.10481889763779456 L5.712598425196849 -0.10481889763779456 L5.144485760314258 0.22318110236220529 L5.144485760314258 0.22318110236220529 z"/>
<path fill="#0000ff" stroke="#0000ff" d="M6.280711090079441 0.2231811023622041 L6.280711090079441 0.2231811023622041 L5.71259842519685 -0.10481889763779537 L5.71259842519685 -0.10481889763779537 z"/>
<path fill="#0000ff" stroke="#0000ff" d="M6.280711090079442 0.8791811023622045 L6.280711090079442 0.8791811023622045 L6.280711090079442 0.22318110236220476 L6.280711090079442 0.22318110236220476 z"/>
<path fill="#0000ff" stroke="#0000ff" d="M5.712598425196849 1.207181102362205 L5.712598425196849 1.207181102362205 L6.280711090079442 0.8791811023622048 L6.280711090079442 0.8791811023622048 z"/>
<path fill="#0000ff" stroke="#0000ff" d="M5.144485760314258 0.22318110236220515 L5.144485760314258 0.22318110236220515 L5.144485760314258 0.8791811023622048 L5.144485760314258 0.8791811023622048 z"/>
<path fill="#0000ff" stroke="#0000ff" d="M5.144485760314258 0.8791811023622046 L5.144485760314258 0.8791811023622046 L5.71259842519685 1.207181102362204 L5.71259842519685 1.207181102362204 z"/>
<path fill="#0000ff" stroke="#0000ff" d="M5.71259842519685 -0.10481889763779516 L5.144485760314258 0.22318110236220515 L5.144485760314259 0.8791811023622048 L5.71259842519685 1.2071811023622043 L6.280711090079442 0.8791811023622045 L6.280711090079442 0.22318110236220473 z"/>
<path fill="#0000ff" stroke="#0000ff" d="M5.71259842519685 -0.10481889763779516 L6.280711090079442 0.22318110236220473 L6.280711090079442 0.8791811023622045 L5.71259842519685 1.2071811023622043 L5.144485760314259 0.8791811023622048 L5.144485760314258 0.22318110236220515 z"/>
<path fill="#0000ff" stroke="#0000ff" d="M6.214893159391824 0.26118110236220465 L6.214893159391824 0.26118110236220465 L5.71259842519685 -0.02881889763779548 L5.71259842519685 -0.02881889763779548 z"/>
<path fill="#0000ff" stroke="#0000ff" d="M6.214893159391825 0.8411811023622046 L6.214893159391825 0.8411811023622046 L6.214893159391825 0.26118110236220476 L6.214893159391825 0.26118110236220476 z"/>
<path fill="#0000ff" stroke="#0000ff" d="M5.71259842519685 1.131181102362205 L5.71259842519685 1.131181102362205 L6.214893159391824 0.8411811023622047 L6.214893159391824 0.8411811023622047 z"/>
<path fill="#0000ff" stroke="#0000ff" d="M5.210303691001875 0.8411811023622044 L5.210303691001875 0.8411811023622044 L5.71259842519685 1.1311811023622045 L5.71259842519685 1.1311811023622045 z"/>
<path fill="#0000ff" stroke="#0000ff" d="M5.210303691001876 0.26118110236220504 L5.210303691001876 0.26118110236220504 L5.210303691001876 0.8411811023622048 L5.210303691001876 0.8411811023622048 z"/>
<path fill="#0000ff" stroke="#0000ff" d="M5.71259842519685 -0.02881889763779508 L5.71259842519685 -0.02881889763779508 L5.210303691001875 0.26118110236220543 L5.210303691001875 0.26118110236220543 z"/>
<path fill="#0000ff" stroke="#0000ff" d="M6.214893159391825 0.2611811023622047 L5.71259842519685 -0.028818897637795212 L5.210303691001876 0.26118110236220504 L5.210303691001876 0.8411811023622047 L5.71259842519685 1.1311811023622045 L6.214893159391825 0.8411811023622044 z"/>
<path fill="#0000ff" stroke="#0000ff" d="M6.214893159391825 0.2611811023622047 L6.214893159391825 0.8411811023622044 L5.71259842519685 1.1311811023622045 L5.210303691001876 0.8411811023622047 L5.210303691001876 0.26118110236220504 L5.71259842519685 -0.028818897637795212 z"/>
<path fill="#0000ff" stroke="#0000ff" d="M6.08764879691452 0.3346456692913385 L6.08764879691452 0.3346456692913385 L5.71259842519685 0.1181102362204722 L5.71259842519685 0.1181102362204722 z"/>
<path fill="#0000ff" stroke="#0000ff" d="M5.71259842519685 0.9842519685039371 L5.71259842519685 0.9842519685039371 L6.087648796914521 0.7677165354330708 L6.087648796914521 0.7677165354330708 z"/>
<path fill="#0000ff" stroke="#0000ff" d="M5.33754805347918 0.7677165354330708 L5.33754805347918 0.7677165354330708 L5.71259842519685 0.9842519685039366 L5.71259842519685 0.9842519685039366 z"/>
<path fill="#0000ff" stroke="#0000ff" d="M6.087648796914521 0.7677165354330706 L6.087648796914521 0.7677165354330706 L6.087648796914521 0.33464566929133854 L6.087648796914521 0.33464566929133854 z"/>
<path fill="#0000ff" stroke="#0000ff" d="M5.33754805347918 0.3346456692913388 L5.33754805347918 0.3346456692913388 L5.33754805347918 0.767716535433071 L5.33754805347918 0.767716535433071 z"/>
<path fill="#0000ff" stroke="#0000ff" d="M5.71259842519685 0.11811023622047258 L5.71259842519685 0.11811023622047258 L5.337548053479179 0.33464566929133915 L5.337548053479179 0.33464566929133915 z"/>
<path fill="#0000ff" stroke="#0000ff" d="M6.087648796914521 0.33464566929133854 L5.71259842519685 0.11811023622047244 L5.33754805347918 0.3346456692913388 L5.33754805347918 0.767716535433071 L5.71259842519685 0.9842519685039369 L6.087648796914521 0.7677165354330706 z"/>
<path fill="#0000ff" stroke="#0000ff" d="M5.71259842519685 0.11811023622047244 L6.087648796914521 0.33464566929133854 L6.087648796914521 0.7677165354330706 L5.71259842519685 0.9842519685039369 L5.33754805347918 0.767716535433071 L5.33754805347918 0.3346456692913388 z"/>
<path fill="#ff0000" stroke="#ff0000" d="M-2.9960629921259834 -2.0733228346456696 L-2.9960629921259834 -2.0733228346456696 L-3.564175657008576 -1.7453228346456688 L-3.564175657008576 -1.7453228346456688 z"/>
<path fill="#ff0000" stroke="#ff0000" d="M-2.427950327243392 -1.745322834645669 L-2.427950327243392 -1.745322834645669 L-2.996062992125984 -2.073322834645669 L-2.996062992125984 -2.073322834645669 z"/>
<path fill="#ff0000" stroke="#ff0000" d="M-2.4279503272433924 -1.0893228346456694 L-2.4279503272433924 -1.0893228346456694 L-2.4279503272433924 -1.7453228346456693 L-2.4279503272433924 -1.7453228346456693 z"/>
<path fill="#ff0000" stroke="#ff0000" d="M-2.996062992125984 -0.7613228346456696 L-2.996062992125984 -0.7613228346456696 L-2.427950327243392 -1.0893228346456696 L-2.427950327243392 -1.0893228346456696 z"/>
<path fill="#ff0000" stroke="#ff0000" d="M-3.564175657008576 -1.7453228346456688 L-3.564175657008576 -1.7453228346456688 L-3.5641756570085756 -1.0893228346456691 L-3.5641756570085756 -1.0893228346456691 z"/>
<path fill="#ff0000" stroke="#ff0000" d="M-3.564175657008575 -1.089322834645669 L-3.564175657008575 -1.089322834645669 L-2.996062992125984 -0.7613228346456694 L-2.996062992125984 -0.7613228346456694 z"/>
<path fill="#ff0000" stroke="#ff0000" d="M-2.996062992125984 -2.073322834645669 L-3.564175657008576 -1.7453228346456688 L-3.5641756570085756 -1.089322834645669 L-2.996062992125984 -0.7613228346456694 L-2.4279503272433924 -1.0893228346456694 L-2.4279503272433924 -1.745322834645669 z"/>
<path fill="#ff0000" stroke="#ff0000" d="M-2.996062992125984 -2.073322834645669 L-2.4279503272433924 -1.745322834645669 L-2.4279503272433924 -1.0893228346456694 L-2.996062992125984 -0.7613228346456694 L-3.5641756570085756 -1.089322834645669 L-3.564175657008576 -1.7453228346456688 z"/>
<path fill="#ff0000" stroke="#ff0000" d="M-2.493768257931009 -1.7073228346456693 L-2.493768257931009 -1.7073228346456693 L-2.996062992125984 -1.997322834645669 L-2.996062992125984 -1.997322834645669 z"/>
<path fill="#ff0000" stroke="#ff0000" d="M-2.4937682579310096 -1.1273228346456694 L-2.4937682579310096 -1.1273228346456694 L-2.4937682579310096 -1.7073228346456693 L-2.4937682579310096 -1.7073228346456693 z"/>
<path fill="#ff0000" stroke="#ff0000" d="M-2.996062992125984 -0.8373228346456695 L-2.996062992125984 -0.8373228346456695 L-2.4937682579310096 -1.1273228346456696 L-2.4937682579310096 -1.1273228346456696 z"/>
<path fill="#ff0000" stroke="#ff0000" d="M-3.498357726320958 -1.127322834645669 L-3.498357726320958 -1.127322834645669 L-2.996062992125984 -0.8373228346456694 L-2.996062992125984 -0.8373228346456694 z"/>
<path fill="#ff0000" stroke="#ff0000" d="M-3.4983577263209584 -1.7073228346456688 L-3.4983577263209584 -1.7073228346456688 L-3.4983577263209584 -1.1273228346456692 L-3.4983577263209584 -1.1273228346456692 z"/>
<path fill="#ff0000" stroke="#ff0000" d="M-2.996062992125984 -1.9973228346456693 L-2.996062992125984 -1.9973228346456693 L-3.4983577263209584 -1.707322834645669 L-3.4983577263209584 -1.707322834645669 z"/>
<path fill="#ff0000" stroke="#ff0000" d="M-2.4937682579310096 -1.7073228346456693 L-2.996062992125984 -1.9973228346456693 L-3.498357726320959 -1.707322834645669 L-3.4983577263209584 -1.1273228346456692 L-2.996062992125984 -0.8373228346456693 L-2.4937682579310096 -1.1273228346456694 z"/>
<path fill="#ff0000" stroke="#ff0000" d="M-2.4937682579310096 -1.7073228346456693 L-2.4937682579310096 -1.1273228346456694 L-2.996062992125984 -0.8373228346456693 L-3.4983577263209584 -1.1273228346456692 L-3.498357726320959 -1.707322834645669 L-2.996062992125984 -1.9973228346456693 z"/>
<path fill="#ff0000" stroke="#ff0000" d="M-2.6210126204083135 -1.6338582677165354 L-2.6210126204083135 -1.6338582677165354 L-2.996062992125984 -1.8503937007874014 L-2.996062992125984 -1.8503937007874014 z"/>
<path fill="#ff0000" stroke="#ff0000" d="M-2.996062992125984 -0.9842519685039371 L-2.996062992125984 -0.9842519685039371 L-2.6210126204083135 -1.2007874015748035 L-2.6210126204083135 -1.2007874015748035 z"/>
<path fill="#ff0000" stroke="#ff0000" d="M-3.371113363843654 -1.2007874015748028 L-3.371113363843654 -1.2007874015748028 L-2.996062992125984 -0.984251968503937 L-2.996062992125984 -0.984251968503937 z"/>
<path fill="#ff0000" stroke="#ff0000" d="M-2.6210126204083135 -1.2007874015748032 L-2.6210126204083135 -1.2007874015748032 L-2.621012620408314 -1.6338582677165352 L-2.621012620408314 -1.6338582677165352 z"/>
<path fill="#ff0000" stroke="#ff0000" d="M-3.3711133638436546 -1.633858267716535 L-3.3711133638436546 -1.633858267716535 L-3.371113363843654 -1.2007874015748028 L-3.371113363843654 -1.2007874015748028 z"/>
<path fill="#ff0000" stroke="#ff0000" d="M-2.996062992125984 -1.8503937007874016 L-2.996062992125984 -1.8503937007874016 L-3.3711133638436546 -1.6338582677165352 L-3.3711133638436546 -1.6338582677165352 z"/>
<path fill="#ff0000" stroke="#ff0000" d="M-2.621012620408314 -1.6338582677165352 L-2.996062992125984 -1.8503937007874014 L-3.3711133638436546 -1.633858267716535 L-3.371113363843654 -1.200787401574803 L-2.996062992125984 -0.984251968503937 L-2.621012620408314 -1.2007874015748032 z"/>
<path fill="#ff0000" stroke="#ff0000" d="M-2.996062992125984 -1.8503937007874014 L-2.621012620408314 -1.6338582677165352 L-2.621012620408314 -1.2007874015748032 L-2.996062992125984 -0.984251968503937 L-3.371113363843654 -1.200787401574803 L-3.3711133638436546 -1.633858267716535 z"/>
<path fill="#ff0000" stroke="#ff0000" d="M-4.413385826771653 -2.073322834645669 L-4.413385826771653 -2.073322834645669 L-4.981498491654245 -1.7453228346456693 L-4.981498491654245 -1.7453228346456693 z"/>
<path fill="#ff0000" stroke="#ff0000" d="M-3.8452731618890614 -1.745322834645669 L-3.8452731618890614 -1.745322834645669 L-4.413385826771653 -2.0733228346456687 L-4.413385826771653 -2.0733228346456687 z"/>
<path fill="#ff0000" stroke="#ff0000" d="M-3.845273161889062 -1.0893228346456694 L-3.845273161889062 -1.0893228346456694 L-3.845273161889062 -1.7453228346456693 L-3.845273161889062 -1.7453228346456693 z"/>
<path fill="#ff0000" stroke="#ff0000" d="M-4.413385826771653 -0.7613228346456695 L-4.413385826771653 -0.7613228346456695 L-3.8452731618890614 -1.0893228346456698 L-3.8452731618890614 -1.0893228346456698 z"/>
<path fill="#ff0000" stroke="#ff0000" d="M-4.9814984916542455 -1.7453228346456688 L-4.9814984916542455 -1.7453228346456688 L-4.981498491654245 -1.0893228346456691 L-4.981498491654245 -1.0893228346456691 z"/>
<path fill="#ff0000" stroke="#ff0000" d="M-4.981498491654245 -1.0893228346456691 L-4.981498491654245 -1.0893228346456691 L-4.413385826771653 -0.7613228346456692 L-4.413385826771653 -0.7613228346456692 z"/>
<path fill="#ff0000" stroke="#ff0000" d="M-4.413385826771653 -2.073322834645669 L-4.9814984916542455 -1.7453228346456688 L-4.981498491654245 -1.089322834645669 L-4.413385826771653 -0.7613228346456694 L-3.845273161889062 -1.0893228346456694 L-3.845273161889062 -1.745322834645669 z"/>
<path fill="#ff0000" stroke="#ff0000" d="M-4.413385826771653 -2.073322834645669 L-3.845273161889062 -1.745322834645669 L-3.845273161889062 -1.0893228346456694 L-4.413385826771653 -0.7613228346456694 L-4.981498491654245 -1.089322834645669 L-4.9814984916542455 -1.7453228346456688 z"/>
<path fill="#ff0000" stroke="#ff0000" d="M-3.9110910925766786 -1.707322834645669 L-3.9110910925766786 -1.707322834645669 L-4.413385826771653 -1.9973228346456693 L-4.413385826771653 -1.9973228346456693 z"/>
<path fill="#ff0000" stroke="#ff0000" d="M-3.911091092576679 -1.1273228346456694 L-3.911091092576679 -1.1273228346456694 L-3.911091092576679 -1.7073228346456693 L-3.911091092576679 -1.7073228346456693 z"/>
<path fill="#ff0000" stroke="#ff0000" d="M-4.413385826771653 -0.8373228346456696 L-4.413385826771653 -0.8373228346456696 L-3.9110910925766786 -1.1273228346456698 L-3.9110910925766786 -1.1273228346456698 z"/>
<path fill="#ff0000" stroke="#ff0000" d="M-4.915680560966627 -1.127322834645669 L-4.915680560966627 -1.127322834645669 L-4.413385826771653 -0.837322834645669 L-4.413385826771653 -0.837322834645669 z"/>
<path fill="#ff0000" stroke="#ff0000" d="M-4.915680560966628 -1.7073228346456688 L-4.915680560966628 -1.7073228346456688 L-4.915680560966628 -1.1273228346456692 L-4.915680560966628 -1.1273228346456692 z"/>
<path fill="#ff0000" stroke="#ff0000" d="M-4.413385826771653 -1.9973228346456697 L-4.413385826771653 -1.9973228346456697 L-4.915680560966628 -1.707322834645669 L-4.915680560966628 -1.707322834645669 z"/>
<path fill="#ff0000" stroke="#ff0000" d="M-3.911091092576679 -1.7073228346456693 L-4.413385826771653 -1.9973228346456693 L-4.915680560966628 -1.707322834645669 L-4.915680560966628 -1.1273228346456692 L-4.413385826771653 -0.8373228346456693 L-3.911091092576679 -1.1273228346456694 z"/>
<path fill="#ff0000" stroke="#ff0000" d="M-3.911091092576679 -1.7073228346456693 L-3.911091092576679 -1.1273228346456694 L-4.413385826771653 -0.8373228346456693 L-4.915680560966628 -1.1273228346456692 L-4.915680560966628 -1.707322834645669 L-4.413385826771653 -1.9973228346456693 z"/>
<path fill="#ff0000" stroke="#ff0000" d="M-4.038335455053983 -1.6338582677165352 L-4.038335455053983 -1.6338582677165352 L-4.413385826771653 -1.8503937007874016 L-4.413385826771653 -1.8503937007874016 z"/>
<path fill="#ff0000" stroke="#ff0000" d="M-4.413385826771653 -0.9842519685039374 L-4.413385826771653 -0.9842519685039374 L-4.038335455053982 -1.2007874015748037 L-4.038335455053982 -1.2007874015748037 z"/>
<path fill="#ff0000" stroke="#ff0000" d="M-4.788436198489324 -1.2007874015748028 L-4.788436198489324 -1.2007874015748028 L-4.413385826771653 -0.9842519685039368 L-4.413385826771653 -0.9842519685039368 z"/>
<path fill="#ff0000" stroke="#ff0000" d="M-4.038335455053983 -1.2007874015748032 L-4.038335455053983 -1.2007874015748032 L-4.038335455053983 -1.6338582677165352 L-4.038335455053983 -1.6338582677165352 z"/>
<path fill="#ff0000" stroke="#ff0000" d="M-4.788436198489324 -1.633858267716535 L-4.788436198489324 -1.633858267716535 L-4.788436198489324 -1.2007874015748028 L-4.788436198489324 -1.2007874015748028 z"/>
<path fill="#ff0000" stroke="#ff0000" d="M-4.413385826771653 -1.8503937007874016 L-4.413385826771653 -1.8503937007874016 L-4.788436198489323 -1.6338582677165356 L-4.788436198489323 -1.6338582677165356 z"/>
<path fill="#ff0000" stroke="#ff0000" d="M-4.038335455053983 -1.6338582677165352 L-4.413385826771653 -1.8503937007874014 L-4.788436198489324 -1.633858267716535 L-4.788436198489324 -1.200787401574803 L-4.413385826771653 -0.984251968503937 L-4.038335455053983 -1.2007874015748032 z"/>
<path fill="#ff0000" stroke="#ff0000" d="M-4.413385826771653 -1.8503937007874014 L-4.038335455053983 -1.6338582677165352 L-4.038335455053983 -1.2007874015748032 L-4.413385826771653 -0.984251968503937 L-4.788436198489324 -1.200787401574803 L-4.788436198489324 -1.633858267716535 z"/>
<path fill="#ff0000" stroke="#ff0000" d="M-5.712598425196849 -1.5221417322834652 L-5.712598425196849 -1.5221417322834652 L-6.280711090079442 -1.1941417322834644 L-6.280711090079442 -1.1941417322834644 z"/>
<path fill="#ff0000" stroke="#ff0000" d="M-5.144485760314258 -1.1941417322834644 L-5.144485760314258 -1.1941417322834644 L-5.71259842519685 -1.5221417322834643 L-5.71259842519685 -1.5221417322834643 z"/>
<path fill="#ff0000" stroke="#ff0000" d="M-5.144485760314258 -0.5381417322834647 L-5.144485760314258 -0.5381417322834647 L-5.144485760314258 -1.1941417322834644 L-5.144485760314258 -1.1941417322834644 z"/>
<path fill="#ff0000" stroke="#ff0000" d="M-5.712598425196849 -0.21014173228346505 L-5.712598425196849 -0.21014173228346505 L-5.144485760314258 -0.538141732283465 L-5.144485760314258 -0.538141732283465 z"/>
<path fill="#ff0000" stroke="#ff0000" d="M-6.280711090079442 -1.194141732283464 L-6.280711090079442 -1.194141732283464 L-6.280711090079442 -0.5381417322834644 L-6.280711090079442 -0.5381417322834644 z"/>
<path fill="#ff0000" stroke="#ff0000" d="M-6.280711090079441 -0.5381417322834638 L-6.280711090079441 -0.5381417322834638 L-5.71259842519685 -0.2101417322834646 L-5.71259842519685 -0.2101417322834646 z"/>
<path fill="#ff0000" stroke="#ff0000" d="M-5.71259842519685 -1.5221417322834645 L-6.280711090079442 -1.194141732283464 L-6.280711090079442 -0.5381417322834644 L-5.71259842519685 -0.21014173228346472 L-5.144485760314258 -0.5381417322834647 L-5.144485760314259 -1.1941417322834644 z"/>
<path fill="#ff0000" stroke="#ff0000" d="M-5.71259842519685 -1.5221417322834645 L-5.144485760314259 -1.1941417322834644 L-5.144485760314258 -0.5381417322834647 L-5.71259842519685 -0.21014173228346472 L-6.280711090079442 -0.5381417322834644 L-6.280711090079442 -1.194141732283464 z"/>
<path fill="#ff0000" stroke="#ff0000" d="M-5.210303691001875 -1.1561417322834642 L-5.210303691001875 -1.1561417322834642 L-5.71259842519685 -1.4461417322834642 L-5.71259842519685 -1.4461417322834642 z"/>
<path fill="#ff0000" stroke="#ff0000" d="M-5.210303691001876 -0.5761417322834648 L-5.210303691001876 -0.5761417322834648 L-5.210303691001876 -1.1561417322834646 L-5.210303691001876 -1.1561417322834646 z"/>
<path fill="#ff0000" stroke="#ff0000" d="M-5.71259842519685 -0.2861417322834648 L-5.71259842519685 -0.2861417322834648 L-5.210303691001875 -0.5761417322834651 L-5.210303691001875 -0.5761417322834651 z"/>
<path fill="#ff0000" stroke="#ff0000" d="M-6.214893159391824 -0.5761417322834642 L-6.214893159391824 -0.5761417322834642 L-5.71259842519685 -0.2861417322834647 L-5.71259842519685 -0.2861417322834647 z"/>
<path fill="#ff0000" stroke="#ff0000" d="M-6.214893159391825 -1.1561417322834642 L-6.214893159391825 -1.1561417322834642 L-6.214893159391824 -0.5761417322834644 L-6.214893159391824 -0.5761417322834644 z"/>
<path fill="#ff0000" stroke="#ff0000" d="M-5.71259842519685 -1.4461417322834647 L-5.71259842519685 -1.4461417322834647 L-6.214893159391824 -1.1561417322834646 L-6.214893159391824 -1.1561417322834646 z"/>
<path fill="#ff0000" stroke="#ff0000" d="M-5.210303691001876 -1.1561417322834646 L-5.71259842519685 -1.4461417322834644 L-6.214893159391825 -1.1561417322834642 L-6.214893159391824 -0.5761417322834644 L-5.71259842519685 -0.2861417322834647 L-5.210303691001876 -0.5761417322834648 z"/>
<path fill="#ff0000" stroke="#ff0000" d="M-5.210303691001876 -1.1561417322834646 L-5.210303691001876 -0.5761417322834648 L-5.71259842519685 -0.2861417322834647 L-6.214893159391824 -0.5761417322834644 L-6.214893159391825 -1.1561417322834642 L-5.71259842519685 -1.4461417322834644 z"/>
<path fill="#ff0000" stroke="#ff0000" d="M-5.337548053479179 -1.0826771653543303 L-5.337548053479179 -1.0826771653543303 L-5.71259842519685 -1.2992125984251968 L-5.71259842519685 -1.2992125984251968 z"/>
<path fill="#ff0000" stroke="#ff0000" d="M-5.71259842519685 -0.43307086614173246 L-5.71259842519685 -0.43307086614173246 L-5.337548053479179 -0.6496062992125988 L-5.337548053479179 -0.6496062992125988 z"/>
<path fill="#ff0000" stroke="#ff0000" d="M-6.08764879691452 -0.6496062992125983 L-6.08764879691452 -0.6496062992125983 L-5.71259842519685 -0.4330708661417321 L-5.71259842519685 -0.4330708661417321 z"/>
<path fill="#ff0000" stroke="#ff0000" d="M-5.33754805347918 -0.6496062992125985 L-5.33754805347918 -0.6496062992125985 L-5.33754805347918 -1.0826771653543308 L-5.33754805347918 -1.0826771653543308 z"/>
<path fill="#ff0000" stroke="#ff0000" d="M-6.087648796914521 -1.0826771653543303 L-6.087648796914521 -1.0826771653543303 L-6.087648796914521 -0.6496062992125983 L-6.087648796914521 -0.6496062992125983 z"/>
<path fill="#ff0000" stroke="#ff0000" d="M-5.71259842519685 -1.299212598425197 L-5.71259842519685 -1.299212598425197 L-6.08764879691452 -1.0826771653543308 L-6.08764879691452 -1.0826771653543308 z"/>
<path fill="#ff0000" stroke="#ff0000" d="M-5.33754805347918 -1.0826771653543306 L-5.71259842519685 -1.2992125984251968 L-6.087648796914521 -1.0826771653543303 L-6.087648796914521 -0.6496062992125983 L-5.71259842519685 -0.43307086614173235 L-5.33754805347918 -0.6496062992125985 z"/>
<path fill="#ff0000" stroke="#ff0000" d="M-5.71259842519685 -1.2992125984251968 L-5.33754805347918 -1.0826771653543306 L-5.33754805347918 -0.6496062992125985 L-5.71259842519685 -0.43307086614173235 L-6.087648796914521 -0.6496062992125983 L-6.087648796914521 -1.0826771653543303 z"/>
<path fill="#ff0000" stroke="#ff0000" d="M-2.9960629921259834 -0.6560000000000001 L-2.9960629921259834 -0.6560000000000001 L-3.564175657008576 -0.32799999999999957 L-3.564175657008576 -0.32799999999999957 z"/>
<path fill="#ff0000" stroke="#ff0000" d="M-2.427950327243392 -0.3279999999999998 L-2.427950327243392 -0.3279999999999998 L-2.996062992125984 -0.6559999999999998 L-2.996062992125984 -0.6559999999999998 z"/>
<path fill="#ff0000" stroke="#ff0000" d="M-2.4279503272433924 0.3279999999999998 L-2.4279503272433924 0.3279999999999998 L-2.4279503272433924 -0.3279999999999999 L-2.4279503272433924 -0.3279999999999999 z"/>
<path fill="#ff0000" stroke="#ff0000" d="M-2.996062992125984 0.6559999999999997 L-2.996062992125984 0.6559999999999997 L-2.427950327243392 0.3279999999999996 L-2.427950327243392 0.3279999999999996 z"/>
<path fill="#ff0000" stroke="#ff0000" d="M-3.564175657008576 -0.3279999999999995 L-3.564175657008576 -0.3279999999999995 L-3.5641756570085756 0.3280000000000001 L-3.5641756570085756 0.3280000000000001 z"/>
<path fill="#ff0000" stroke="#ff0000" d="M-3.564175657008575 0.3280000000000003 L-3.564175657008575 0.3280000000000003 L-2.996062992125984 0.6559999999999999 L-2.996062992125984 0.6559999999999999 z"/>
<path fill="#ff0000" stroke="#ff0000" d="M-2.996062992125984 -0.6559999999999998 L-3.564175657008576 -0.3279999999999995 L-3.5641756570085756 0.3280000000000001 L-2.996062992125984 0.6559999999999998 L-2.4279503272433924 0.3279999999999998 L-2.4279503272433924 -0.3279999999999999 z"/>
<path fill="#ff0000" stroke="#ff0000" d="M-2.996062992125984 -0.6559999999999998 L-2.4279503272433924 -0.3279999999999999 L-2.4279503272433924 0.3279999999999998 L-2.996062992125984 0.6559999999999998 L-3.5641756570085756 0.3280000000000001 L-3.564175657008576 -0.3279999999999995 z"/>
<path fill="#ff0000" stroke="#ff0000" d="M-2.493768257931009 -0.2899999999999998 L-2.493768257931009 -0.2899999999999998 L-2.996062992125984 -0.5799999999999997 L-2.996062992125984 -0.5799999999999997 z"/>
<path fill="#ff0000" stroke="#ff0000" d="M-2.4937682579310096 0.28999999999999987 L-2.4937682579310096 0.28999999999999987 L-2.4937682579310096 -0.29 L-2.4937682579310096 -0.29 z"/>
<path fill="#ff0000" stroke="#ff0000" d="M-2.996062992125984 0.5799999999999998 L-2.996062992125984 0.5799999999999998 L-2.4937682579310096 0.28999999999999976 L-2.4937682579310096 0.28999999999999976 z"/>
<path fill="#ff0000" stroke="#ff0000" d="M-3.498357726320958 0.29000000000000037 L-3.498357726320958 0.29000000000000037 L-2.996062992125984 0.58 L-2.996062992125984 0.58 z"/>
<path fill="#ff0000" stroke="#ff0000" d="M-3.4983577263209584 -0.2899999999999996 L-3.4983577263209584 -0.2899999999999996 L-3.4983577263209584 0.2900000000000001 L-3.4983577263209584 0.2900000000000001 z"/>
<path fill="#ff0000" stroke="#ff0000" d="M-2.996062992125984 -0.58 L-2.996062992125984 -0.58 L-3.4983577263209584 -0.2899999999999997 L-3.4983577263209584 -0.2899999999999997 z"/>
<path fill="#ff0000" stroke="#ff0000" d="M-2.4937682579310096 -0.2899999999999999 L-2.996062992125984 -0.5799999999999998 L-3.498357726320959 -0.2899999999999996 L-3.4983577263209584 0.2900000000000001 L-2.996062992125984 0.5799999999999998 L-2.4937682579310096 0.2899999999999998 z"/>
<path fill="#ff0000" stroke="#ff0000" d="M-2.4937682579310096 -0.2899999999999999 L-2.4937682579310096 0.2899999999999998 L-2.996062992125984 0.5799999999999998 L-3.4983577263209584 0.2900000000000001 L-3.498357726320959 -0.2899999999999996 L-2.996062992125984 -0.5799999999999998 z"/>
<path fill="#ff0000" stroke="#ff0000" d="M-2.6210126204083135 -0.2165354330708661 L-2.6210126204083135 -0.2165354330708661 L-2.996062992125984 -0.4330708661417321 L-2.996062992125984 -0.4330708661417321 z"/>
<path fill="#ff0000" stroke="#ff0000" d="M-2.996062992125984 0.43307086614173224 L-2.996062992125984 0.43307086614173224 L-2.6210126204083135 0.2165354330708659 L-2.6210126204083135 0.2165354330708659 z"/>
<path fill="#ff0000" stroke="#ff0000" d="M-3.371113363843654 0.21653543307086645 L-3.371113363843654 0.21653543307086645 L-2.996062992125984 0.43307086614173235 L-2.996062992125984 0.43307086614173235 z"/>
<path fill="#ff0000" stroke="#ff0000" d="M-2.621012620408314 0.21653543307086603 L-2.621012620408314 0.21653543307086603 L-2.621012620408314 -0.21653543307086612 L-2.621012620408314 -0.21653543307086612 z"/>
<path fill="#ff0000" stroke="#ff0000" d="M-3.3711133638436546 -0.21653543307086584 L-3.3711133638436546 -0.21653543307086584 L-3.371113363843654 0.21653543307086626 L-3.371113363843654 0.21653543307086626 z"/>
<path fill="#ff0000" stroke="#ff0000" d="M-2.996062992125984 -0.4330708661417323 L-2.996062992125984 -0.4330708661417323 L-3.3711133638436546 -0.21653543307086595 L-3.3711133638436546 -0.21653543307086595 z"/>
<path fill="#ff0000" stroke="#ff0000" d="M-2.621012620408314 -0.21653543307086612 L-2.996062992125984 -0.43307086614173224 L-3.3711133638436546 -0.2165354330708658 L-3.371113363843654 0.21653543307086626 L-2.996062992125984 0.43307086614173224 L-2.621012620408314 0.21653543307086603 z"/>
<path fill="#ff0000" stroke="#ff0000" d="M-2.996062992125984 -0.43307086614173224 L-2.621012620408314 -0.21653543307086612 L-2.621012620408314 0.21653543307086603 L-2.996062992125984 0.43307086614173224 L-3.371113363843654 0.21653543307086626 L-3.3711133638436546 -0.2165354330708658 z"/>
<path fill="#ff0000" stroke="#ff0000" d="M-4.413385826771653 -0.656 L-4.413385826771653 -0.656 L-4.981498491654245 -0.32799999999999985 L-4.981498491654245 -0.32799999999999985 z"/>
<path fill="#ff0000" stroke="#ff0000" d="M-3.8452731618890614 -0.3279999999999998 L-3.8452731618890614 -0.3279999999999998 L-4.413385826771653 -0.6559999999999996 L-4.413385826771653 -0.6559999999999996 z"/>
<path fill="#ff0000" stroke="#ff0000" d="M-3.845273161889062 0.3279999999999998 L-3.845273161889062 0.3279999999999998 L-3.845273161889062 -0.3279999999999999 L-3.845273161889062 -0.3279999999999999 z"/>
<path fill="#ff0000" stroke="#ff0000" d="M-4.413385826771653 0.6559999999999998 L-4.413385826771653 0.6559999999999998 L-3.8452731618890614 0.32799999999999957 L-3.8452731618890614 0.32799999999999957 z"/>
<path fill="#ff0000" stroke="#ff0000" d="M-4.9814984916542455 -0.3279999999999995 L-4.9814984916542455 -0.3279999999999995 L-4.981498491654245 0.3280000000000001 L-4.981498491654245 0.3280000000000001 z"/>
<path fill="#ff0000" stroke="#ff0000" d="M-4.981498491654245 0.3280000000000002 L-4.981498491654245 0.3280000000000002 L-4.413385826771653 0.6560000000000001 L-4.413385826771653 0.6560000000000001 z"/>
<path fill="#ff0000" stroke="#ff0000" d="M-4.413385826771653 -0.6559999999999998 L-4.9814984916542455 -0.3279999999999995 L-4.981498491654245 0.3280000000000001 L-4.413385826771653 0.6559999999999998 L-3.845273161889062 0.3279999999999998 L-3.845273161889062 -0.3279999999999999 z"/>
<path fill="#ff0000" stroke="#ff0000" d="M-4.413385826771653 -0.6559999999999998 L-3.845273161889062 -0.3279999999999999 L-3.845273161889062 0.3279999999999998 L-4.413385826771653 0.6559999999999998 L-4.981498491654245 0.3280000000000001 L-4.9814984916542455 -0.3279999999999995 z"/>
<path fill="#ff0000" stroke="#ff0000" d="M-3.9110910925766786 -0.2899999999999997 L-3.9110910925766786 -0.2899999999999997 L-4.413385826771653 -0.5799999999999998 L-4.413385826771653 -0.5799999999999998 z"/>
<path fill="#ff0000" stroke="#ff0000" d="M-3.911091092576679 0.28999999999999987 L-3.911091092576679 0.28999999999999987 L-3.911091092576679 -0.29 L-3.911091092576679 -0.29 z"/>
<path fill="#ff0000" stroke="#ff0000" d="M-4.413385826771653 0.5799999999999997 L-4.413385826771653 0.5799999999999997 L-3.9110910925766786 0.2899999999999995 L-3.9110910925766786 0.2899999999999995 z"/>
<path fill="#ff0000" stroke="#ff0000" d="M-4.915680560966627 0.2900000000000003 L-4.915680560966627 0.2900000000000003 L-4.413385826771653 0.5800000000000003 L-4.413385826771653 0.5800000000000003 z"/>
<path fill="#ff0000" stroke="#ff0000" d="M-4.915680560966628 -0.2899999999999996 L-4.915680560966628 -0.2899999999999996 L-4.915680560966628 0.2900000000000001 L-4.915680560966628 0.2900000000000001 z"/>
<path fill="#ff0000" stroke="#ff0000" d="M-4.413385826771653 -0.5800000000000003 L-4.413385826771653 -0.5800000000000003 L-4.915680560966628 -0.28999999999999976 L-4.915680560966628 -0.28999999999999976 z"/>
<path fill="#ff0000" stroke="#ff0000" d="M-3.911091092576679 -0.2899999999999999 L-4.413385826771653 -0.5799999999999998 L-4.915680560966628 -0.2899999999999996 L-4.915680560966628 0.2900000000000001 L-4.413385826771653 0.5799999999999998 L-3.911091092576679 0.2899999999999998 z"/>
<path fill="#ff0000" stroke="#ff0000" d="M-3.911091092576679 -0.2899999999999999 L-3.911091092576679 0.2899999999999998 L-4.413385826771653 0.5799999999999998 L-4.915680560966628 0.2900000000000001 L-4.915680560966628 -0.2899999999999996 L-4.413385826771653 -0.5799999999999998 z"/>
<path fill="#ff0000" stroke="#ff0000" d="M-4.038335455053983 -0.21653543307086592 L-4.038335455053983 -0.21653543307086592 L-4.413385826771653 -0.4330708661417322 L-4.413385826771653 -0.4330708661417322 z"/>
<path fill="#ff0000" stroke="#ff0000" d="M-4.413385826771653 0.43307086614173196 L-4.413385826771653 0.43307086614173196 L-4.038335455053982 0.21653543307086562 L-4.038335455053982 0.21653543307086562 z"/>
<path fill="#ff0000" stroke="#ff0000" d="M-4.788436198489324 0.21653543307086642 L-4.788436198489324 0.21653543307086642 L-4.413385826771653 0.43307086614173257 L-4.413385826771653 0.43307086614173257 z"/>
<path fill="#ff0000" stroke="#ff0000" d="M-4.038335455053983 0.21653543307086603 L-4.038335455053983 0.21653543307086603 L-4.038335455053983 -0.21653543307086612 L-4.038335455053983 -0.21653543307086612 z"/>
<path fill="#ff0000" stroke="#ff0000" d="M-4.788436198489324 -0.21653543307086584 L-4.788436198489324 -0.21653543307086584 L-4.788436198489324 0.21653543307086626 L-4.788436198489324 0.21653543307086626 z"/>
<path fill="#ff0000" stroke="#ff0000" d="M-4.413385826771653 -0.4330708661417323 L-4.413385826771653 -0.4330708661417323 L-4.788436198489323 -0.21653543307086623 L-4.788436198489323 -0.21653543307086623 z"/>
<path fill="#ff0000" stroke="#ff0000" d="M-4.038335455053983 -0.21653543307086612 L-4.413385826771653 -0.43307086614173224 L-4.788436198489324 -0.2165354330708658 L-4.788436198489324 0.21653543307086626 L-4.413385826771653 0.43307086614173224 L-4.038335455053983 0.21653543307086603 z"/>
<path fill="#ff0000" stroke="#ff0000" d="M-4.413385826771653 -0.43307086614173224 L-4.038335455053983 -0.21653543307086612 L-4.038335455053983 0.21653543307086603 L-4.413385826771653 0.43307086614173224 L-4.788436198489324 0.21653543307086626 L-4.788436198489324 -0.2165354330708658 z"/>
<path fill="#ff0000" stroke="#ff0000" d="M-5.712598425196849 -0.10481889763779573 L-5.712598425196849 -0.10481889763779573 L-6.280711090079442 0.22318110236220481 L-6.280711090079442 0.22318110236220481 z"/>
<path fill="#ff0000" stroke="#ff0000" d="M-5.144485760314258 0.22318110236220481 L-5.144485760314258 0.22318110236220481 L-5.71259842519685 -0.104818897637795 L-5.71259842519685 -0.104818897637795 z"/>
<path fill="#ff0000" stroke="#ff0000" d="M-5.144485760314258 0.8791811023622045 L-5.144485760314258 0.8791811023622045 L-5.144485760314259 0.22318110236220476 L-5.144485760314259 0.22318110236220476 z"/>
<path fill="#ff0000" stroke="#ff0000" d="M-5.712598425196849 1.2071811023622043 L-5.712598425196849 1.2071811023622043 L-5.144485760314258 0.8791811023622044 L-5.144485760314258 0.8791811023622044 z"/>
<path fill="#ff0000" stroke="#ff0000" d="M-6.280711090079442 0.22318110236220515 L-6.280711090079442 0.22318110236220515 L-6.280711090079442 0.8791811023622048 L-6.280711090079442 0.8791811023622048 z"/>
<path fill="#ff0000" stroke="#ff0000" d="M-6.280711090079441 0.8791811023622055 L-6.280711090079441 0.8791811023622055 L-5.71259842519685 1.2071811023622048 L-5.71259842519685 1.2071811023622048 z"/>
<path fill="#ff0000" stroke="#ff0000" d="M-5.71259842519685 -0.10481889763779516 L-6.280711090079442 0.22318110236220515 L-6.280711090079442 0.8791811023622048 L-5.71259842519685 1.2071811023622043 L-5.144485760314258 0.8791811023622045 L-5.144485760314259 0.22318110236220473 z"/>
<path fill="#ff0000" stroke="#ff0000" d="M-5.71259842519685 -0.10481889763779516 L-5.144485760314259 0.22318110236220473 L-5.144485760314258 0.8791811023622045 L-5.71259842519685 1.2071811023622043 L-6.280711090079442 0.8791811023622048 L-6.280711090079442 0.22318110236220515 z"/>
<path fill="#ff0000" stroke="#ff0000" d="M-5.210303691001875 0.26118110236220515 L-5.210303691001875 0.26118110236220515 L-5.71259842519685 -0.02881889763779499 L-5.71259842519685 -0.02881889763779499 z"/>
<path fill="#ff0000" stroke="#ff0000" d="M-5.210303691001876 0.8411811023622046 L-5.210303691001876 0.8411811023622046 L-5.210303691001876 0.26118110236220476 L-5.210303691001876 0.26118110236220476 z"/>
<path fill="#ff0000" stroke="#ff0000" d="M-5.71259842519685 1.1311811023622045 L-5.71259842519685 1.1311811023622045 L-5.210303691001875 0.8411811023622042 L-5.210303691001875 0.8411811023622042 z"/>
<path fill="#ff0000" stroke="#ff0000" d="M-6.214893159391824 0.8411811023622051 L-6.214893159391824 0.8411811023622051 L-5.71259842519685 1.1311811023622047 L-5.71259842519685 1.1311811023622047 z"/>
<path fill="#ff0000" stroke="#ff0000" d="M-6.214893159391825 0.26118110236220504 L-6.214893159391825 0.26118110236220504 L-6.214893159391824 0.8411811023622048 L-6.214893159391824 0.8411811023622048 z"/>
<path fill="#ff0000" stroke="#ff0000" d="M-5.71259842519685 -0.028818897637795306 L-5.71259842519685 -0.028818897637795306 L-6.214893159391824 0.2611811023622047 L-6.214893159391824 0.2611811023622047 z"/>
<path fill="#ff0000" stroke="#ff0000" d="M-5.210303691001876 0.2611811023622047 L-5.71259842519685 -0.028818897637795212 L-6.214893159391825 0.26118110236220504 L-6.214893159391824 0.8411811023622047 L-5.71259842519685 1.1311811023622045 L-5.210303691001876 0.8411811023622044 z"/>
<path fill="#ff0000" stroke="#ff0000" d="M-5.210303691001876 0.2611811023622047 L-5.210303691001876 0.8411811023622044 L-5.71259842519685 1.1311811023622045 L-6.214893159391824 0.8411811023622047 L-6.214893159391825 0.26118110236220504 L-5.71259842519685 -0.028818897637795212 z"/>
<path fill="#ff0000" stroke="#ff0000" d="M-5.337548053479179 0.33464566929133893 L-5.337548053479179 0.33464566929133893 L-5.71259842519685 0.11811023622047266 L-5.71259842519685 0.11811023622047266 z"/>
<path fill="#ff0000" stroke="#ff0000" d="M-5.71259842519685 0.9842519685039369 L-5.71259842519685 0.9842519685039369 L-5.337548053479179 0.7677165354330705 L-5.337548053479179 0.7677165354330705 z"/>
<path fill="#ff0000" stroke="#ff0000" d="M-6.08764879691452 0.7677165354330711 L-6.08764879691452 0.7677165354330711 L-5.71259842519685 0.9842519685039373 L-5.71259842519685 0.9842519685039373 z"/>
<path fill="#ff0000" stroke="#ff0000" d="M-5.33754805347918 0.7677165354330706 L-5.33754805347918 0.7677165354330706 L-5.33754805347918 0.33464566929133854 L-5.33754805347918 0.33464566929133854 z"/>
<path fill="#ff0000" stroke="#ff0000" d="M-6.087648796914521 0.3346456692913388 L-6.087648796914521 0.3346456692913388 L-6.087648796914521 0.767716535433071 L-6.087648796914521 0.767716535433071 z"/>
<path fill="#ff0000" stroke="#ff0000" d="M-5.71259842519685 0.11811023622047234 L-5.71259842519685 0.11811023622047234 L-6.08764879691452 0.33464566929133843 L-6.08764879691452 0.33464566929133843 z"/>
<path fill="#ff0000" stroke="#ff0000" d="M-5.33754805347918 0.33464566929133854 L-5.71259842519685 0.11811023622047244 L-6.087648796914521 0.3346456692913388 L-6.087648796914521 0.767716535433071 L-5.71259842519685 0.9842519685039369 L-5.33754805347918 0.7677165354330706 z"/>
<path fill="#ff0000" stroke="#ff0000" d="M-5.71259842519685 0.11811023622047244 L-5.33754805347918 0.33464566929133854 L-5.33754805347918 0.7677165354330706 L-5.71259842519685 0.9842519685039369 L-6.087648796914521 0.767716535433071 L-6.087648796914521 0.3346456692913388 z"/>
</svg>